<svg height="512pt" viewBox="0 -24 512 511" width="512pt" xmlns="http://www.w3.org/2000/svg"><path d="m159.601562 193.300781c-88.003906 0-159.601562 71.59375-159.601562 159.597657v56.234374c0 30.421876 24.746094 55.167969 55.164062 55.167969h208.867188c30.421875 0 55.167969-24.746093 55.167969-55.167969v-56.234374c0-88.003907-71.59375-159.597657-159.597657-159.597657zm0 0" fill="#0065a3"/><path d="m159.601562 193.300781v271h104.433594c30.417969 0 55.167969-24.746093 55.167969-55.167969v-56.234374c-.003906-88.003907-71.597656-159.597657-159.601563-159.597657zm0 0" fill="#005183"/><path d="m400.601562 241.5c-61.425781 0-111.398437 49.972656-111.398437 111.398438 0 61.425781 49.972656 111.402343 111.398437 111.402343 61.425782 0 111.398438-49.976562 111.398438-111.402343 0-61.425782-49.972656-111.398438-111.398438-111.398438zm0 0" fill="#54e360"/><path d="m512 352.898438c0-61.425782-49.972656-111.398438-111.398438-111.398438v222.800781c61.425782 0 111.398438-49.976562 111.398438-111.402343zm0 0" fill="#1fbf66"/><path d="m432.734375 337.898438h-17.132813v-17.132813c0-8.28125-6.71875-15-15-15-8.285156 0-15 6.71875-15 15v17.132813h-17.132812c-8.285156 0-15 6.71875-15 15 0 8.285156 6.714844 15 15 15h17.132812v17.132812c0 8.285156 6.714844 15 15 15 8.28125 0 15-6.714844 15-15v-17.132812h17.132813c8.285156 0 15-6.714844 15-15 0-8.28125-6.714844-15-15-15zm0 0" fill="#e7f0ef"/><path d="m159.601562.5c-61.425781 0-111.402343 49.972656-111.402343 111.398438 0 61.429687 49.976562 111.402343 111.402343 111.402343 61.425782 0 111.398438-49.976562 111.398438-111.402343 0-61.425782-49.972656-111.398438-111.398438-111.398438zm0 0" fill="#e7f0ef"/><g fill="#c5e1e6"><path d="m159.601562.5v222.800781c61.425782 0 111.398438-49.972656 111.398438-111.402343 0-61.425782-49.972656-111.398438-111.398438-111.398438zm0 0"/><path d="m432.734375 337.898438h-17.132813v-17.132813c0-8.28125-6.71875-15-15-15v94.265625c8.28125 0 15-6.714844 15-15v-17.132812h17.132813c8.285156 0 15-6.714844 15-15 0-8.28125-6.714844-15-15-15zm0 0"/></g></svg>